<svg width="22" height="22" viewBox="0 0 22 22" fill="none" xmlns="http://www.w3.org/2000/svg">
<path d="M10.0835 4.77469V15.0139L5.61017 10.5405C5.25267 10.183 4.666 10.183 4.3085 10.5405C3.951 10.898 3.951 11.4755 4.3085 11.833L10.3493 17.8739C10.5206 18.0455 10.7531 18.142 10.9956 18.142C11.2381 18.142 11.4706 18.0455 11.6418 17.8739L17.6918 11.8422C18.0493 11.4847 18.0493 10.9072 17.6918 10.5497C17.3343 10.1922 16.7568 10.1922 16.3993 10.5497L11.9168 15.0139V4.77469C11.9168 4.27052 11.5043 3.85802 11.0002 3.85802C10.496 3.85802 10.0835 4.27052 10.0835 4.77469Z" fill="#7A7B80"/>
</svg>
